<svg width="48" height="48" viewBox="0 0 48 48" fill="none" xmlns="http://www.w3.org/2000/svg">
<rect width="48" height="48" fill="white"/>
<path d="M35.0706 40.2115H34.4467C34.4467 40.2046 34.4436 40.1977 34.4423 40.1912L34.4253 40.1117C34.4143 40.0594 34.4025 40.0076 34.3903 39.9562C34.385 39.932 34.3793 39.9078 34.3736 39.8836C34.3575 39.8158 34.3404 39.7479 34.3229 39.6801L34.3176 39.6606C34.2984 39.5872 34.2783 39.514 34.2573 39.4412L34.2363 39.3707C34.2218 39.3206 34.2065 39.2709 34.1925 39.2212C34.1842 39.194 34.1755 39.1672 34.1671 39.1405C34.1518 39.0925 34.1361 39.0445 34.1199 38.997C34.1116 38.972 34.1028 38.9465 34.0945 38.9218C34.0741 38.8622 34.0531 38.803 34.0315 38.7443C34.0267 38.7317 34.0228 38.7196 34.018 38.7071C33.9926 38.638 33.9659 38.5693 33.9388 38.5006C33.9291 38.4755 33.9191 38.4509 33.909 38.4263C33.8907 38.3831 33.8723 38.3355 33.8535 38.2906L33.818 38.2072C33.7997 38.164 33.7808 38.1208 33.7616 38.0776C33.7498 38.0508 33.7375 38.0236 33.7253 37.9968C33.703 37.9471 33.6815 37.8979 33.6566 37.849C33.6474 37.8305 33.6391 37.8115 33.6299 37.7924C33.5988 37.7281 33.5669 37.6628 33.5345 37.6006L33.4908 37.5198L33.4291 37.4027L33.381 37.3163C33.3608 37.28 33.3407 37.2437 33.3202 37.2074C33.304 37.1781 33.2873 37.1487 33.2707 37.121C33.248 37.0817 33.227 37.0433 33.202 37.0044L33.139 36.899C33.1093 36.8506 33.0795 36.8017 33.0489 36.7538C33.0297 36.7235 33.0104 36.6937 32.9907 36.6639C32.971 36.6341 32.9496 36.6 32.9286 36.5684C32.9076 36.5369 32.8848 36.5054 32.8656 36.4742C32.8463 36.4431 32.8253 36.4151 32.8048 36.3878C32.7842 36.3606 32.761 36.3243 32.7387 36.2928L32.677 36.2064C32.6333 36.1489 32.593 36.0915 32.5502 36.0336L32.4902 35.9545C32.4648 35.9212 32.4386 35.8884 32.4128 35.8556L32.355 35.783C32.3283 35.7497 32.3012 35.7169 32.2741 35.6836L32.2172 35.6153L32.1323 35.5151L32.082 35.4572C31.9775 35.3375 31.8703 35.2196 31.7605 35.1046L31.7124 35.0541L31.6117 34.9517L31.5623 34.9024C31.5273 34.8674 31.4923 34.8329 31.4568 34.7987L31.4205 34.7642C31.2967 34.6454 31.1694 34.5296 31.0399 34.4185L31.0045 34.3879C30.9645 34.3533 30.9243 34.3192 30.8837 34.2855L30.8435 34.2518C30.7997 34.2172 30.7599 34.1831 30.7175 34.1489L30.696 34.1321C30.553 34.018 30.4064 33.907 30.2585 33.8003L30.238 33.7851C30.1912 33.7519 30.1444 33.719 30.0971 33.6866L30.066 33.6655C30.0179 33.6322 29.9694 33.5998 29.9208 33.5674L29.9125 33.5622C29.7515 33.4559 29.5874 33.3541 29.4203 33.2567L29.4137 33.2524C29.3608 33.2218 29.3079 33.1919 29.2549 33.1621L29.2317 33.1492C28.95 32.9922 28.6607 32.8482 28.3637 32.7171L28.3454 32.7089C28.2671 32.6743 28.1883 32.6411 28.1087 32.6082H29.6745C29.9295 32.6082 30.1365 32.3183 30.1365 31.9602C30.1365 31.602 29.9295 31.3121 29.6745 31.3121H29.2081C29.237 31.2395 29.2689 31.1574 29.3035 31.0649C29.7445 30.7936 30.5206 30.2155 31.2906 29.1535L31.2967 29.1453C31.3551 29.0658 31.4124 28.9836 31.4687 28.8986L31.48 28.8818C31.536 28.7984 31.592 28.7124 31.6472 28.6225L31.662 28.5988C31.6883 28.5556 31.7145 28.5124 31.7408 28.4692C31.7408 28.4692 31.7408 28.4657 31.7438 28.4635C31.771 28.4203 31.7977 28.3728 31.8243 28.3266L31.8414 28.2968C31.8642 28.257 31.8873 28.2164 31.9097 28.1754C31.914 28.168 31.9184 28.1607 31.9223 28.1529C31.9482 28.1062 31.974 28.0587 31.9993 28.0107L32.0168 27.9775C32.0378 27.9377 32.0584 27.8976 32.079 27.8569C32.0851 27.8457 32.0912 27.834 32.0969 27.8224C32.1214 27.7736 32.1459 27.7243 32.1704 27.6742L32.1875 27.6392C32.2067 27.5986 32.2264 27.5571 32.2457 27.5156L32.2667 27.4724C32.2903 27.4214 32.3135 27.3696 32.3367 27.3173L32.3511 27.284C32.3703 27.2408 32.3892 27.1976 32.408 27.1544L32.4303 27.1026C32.4522 27.0503 32.474 26.9976 32.495 26.9444C32.499 26.9349 32.5029 26.925 32.5064 26.9155C32.5261 26.8667 32.5453 26.817 32.5646 26.7669L32.5865 26.7098C32.6044 26.6623 32.6223 26.6144 32.6398 26.5664L32.653 26.5301C32.6735 26.4731 32.6937 26.4147 32.7138 26.3573L32.7348 26.2959C32.7505 26.2501 32.7658 26.2035 32.7812 26.1568C32.7868 26.1395 32.7925 26.1222 32.7978 26.105C32.817 26.0453 32.8363 25.9844 32.8551 25.9235C32.8612 25.9023 32.8678 25.8803 32.8739 25.8604L32.9177 25.7183C32.9233 25.6975 32.9295 25.6751 32.9352 25.6565C32.9531 25.5938 32.971 25.5299 32.9881 25.4655C32.9938 25.4452 32.999 25.4245 33.0043 25.4037C33.0174 25.3541 33.0305 25.3044 33.0432 25.2538C33.0489 25.2309 33.0546 25.208 33.0607 25.1851C33.0769 25.1186 33.0931 25.0516 33.1088 24.9838L33.122 24.9272C33.1342 24.8732 33.1465 24.8187 33.1583 24.7639L33.174 24.6904C33.1889 24.62 33.2038 24.5496 33.2178 24.4778C33.2208 24.464 33.2235 24.4498 33.2261 24.4346C33.2383 24.3729 33.2502 24.3102 33.2615 24.2476C33.2663 24.2221 33.2707 24.1966 33.2755 24.1711C33.2869 24.1067 33.2978 24.0415 33.3088 23.9771C33.311 23.9633 33.3136 23.9499 33.3158 23.9365C33.328 23.8604 33.34 23.7838 33.3517 23.7066C33.3556 23.6807 33.3595 23.6548 33.363 23.6284C33.3722 23.5658 33.381 23.5027 33.3897 23.4388L33.3976 23.38C33.4081 23.3005 33.4182 23.2206 33.4278 23.1393C33.4308 23.1139 33.4335 23.0884 33.4365 23.0624C33.4441 22.9979 33.4511 22.9331 33.4575 22.868C33.4601 22.8447 33.4628 22.8218 33.465 22.7985C33.4734 22.7149 33.4813 22.6307 33.4886 22.5457C33.4886 22.5219 33.4925 22.4982 33.4943 22.474C33.5 22.4057 33.5057 22.337 33.5105 22.2679C33.5105 22.2424 33.5144 22.2169 33.5162 22.1914C33.5223 22.1033 33.528 22.0146 33.5332 21.9253C33.5332 21.905 33.5332 21.8821 33.5363 21.8639C33.5402 21.7896 33.5442 21.7149 33.5472 21.6397C33.5472 21.6125 33.5472 21.5852 33.5507 21.558C33.5542 21.4651 33.5577 21.3718 33.5603 21.2772C33.5603 21.2642 33.5603 21.2508 33.5603 21.2374C33.5627 21.1533 33.5644 21.0684 33.5656 20.9825C33.5656 20.9544 33.5656 20.9264 33.5656 20.8983C33.5656 20.8061 33.5656 20.7134 33.5656 20.62V20.5984C33.5656 20.4991 33.5656 20.3984 33.5656 20.296V20.2096C33.5656 20.1232 33.5621 20.0324 33.5599 19.9426V19.8938C33.5568 19.7901 33.5529 19.6851 33.549 19.5797C33.549 19.5524 33.5463 19.5248 33.5455 19.4976C33.5417 19.4088 33.5373 19.3196 33.5323 19.2297C33.5323 19.2077 33.5323 19.1865 33.5288 19.1627C33.5227 19.0547 33.516 18.9458 33.5087 18.8361L33.5035 18.7596C33.4969 18.668 33.4903 18.576 33.4829 18.4831C33.4829 18.4563 33.479 18.4295 33.4768 18.4027C33.4676 18.2904 33.4575 18.1768 33.447 18.0627C33.447 18.0411 33.4427 18.0195 33.4409 17.9975C33.4317 17.9003 33.4217 17.8022 33.4116 17.7032C33.4085 17.6734 33.4055 17.6441 33.402 17.6142C33.3897 17.4967 33.3766 17.3788 33.3626 17.2591C33.3626 17.2444 33.3587 17.2297 33.3569 17.2159C33.3444 17.1087 33.3311 17.001 33.3171 16.8927C33.3127 16.8607 33.3088 16.8288 33.3044 16.7968C33.2881 16.6741 33.2713 16.5504 33.2541 16.4257C31.5041 4.12336 19.1028 6.11988 19.1028 6.11988L19.5 8.76319L12 16.5877L12.3277 19.609L15.1688 21.3372C15.2955 21.0193 15.4581 20.7166 15.6535 20.4347C17.4867 18.3466 21.0431 16.7074 22.0611 16.3673C22.265 16.2995 22.381 16.2654 22.381 16.2654C17.5112 22.4895 18.065 29.6201 18.282 31.3198C18.0563 31.3631 17.8817 31.6322 17.8817 31.9606C17.8817 32.3183 18.0887 32.6087 18.3437 32.6087H19.9095C17.3054 33.6852 15.2383 35.7354 14.1595 38.3118C14.1582 38.3153 14.1568 38.3188 14.1551 38.3221C14.0755 38.5134 14.0014 38.7074 13.9329 38.9041V38.9102C13.9145 38.9637 13.8966 39.0173 13.8791 39.0713C13.8725 39.0908 13.8659 39.1102 13.8598 39.1301C13.8441 39.1785 13.8295 39.2273 13.8161 39.2765C13.8082 39.3016 13.8007 39.3271 13.7933 39.3522C13.7793 39.3984 13.7657 39.445 13.7526 39.4917L13.729 39.5781C13.7167 39.6213 13.7045 39.6676 13.6931 39.7125C13.6848 39.7445 13.6769 39.776 13.6691 39.808C13.6586 39.8512 13.6476 39.8944 13.6376 39.9376C13.6275 39.9808 13.6179 40.024 13.6082 40.0698C13.5986 40.1156 13.5864 40.1692 13.5759 40.2193H12.9516C12.8315 40.2167 12.7121 40.2378 12.6004 40.2813C12.4888 40.3249 12.387 40.3901 12.3012 40.473C12.2153 40.5559 12.1471 40.6549 12.1006 40.7643C12.054 40.8736 12.03 40.991 12.03 41.1095C12.03 41.2281 12.054 41.3455 12.1006 41.4548C12.1471 41.5641 12.2153 41.6632 12.3012 41.7461C12.387 41.829 12.4888 41.8942 12.6004 41.9377C12.7121 41.9813 12.8315 42.0024 12.9516 41.9998H35.0785C35.1985 42.0024 35.3179 41.9813 35.4296 41.9377C35.5413 41.8942 35.643 41.829 35.7288 41.7461C35.8147 41.6632 35.8829 41.5641 35.9295 41.4548C35.976 41.3455 36 41.2281 36 41.1095C36 40.991 35.976 40.8736 35.9295 40.7643C35.8829 40.6549 35.8147 40.5559 35.7288 40.473C35.643 40.3901 35.5413 40.3249 35.4296 40.2813C35.3179 40.2378 35.1985 40.2167 35.0785 40.2193L35.0706 40.2115Z" fill="#595653"/>
<path d="M26.0182 28V25.7429H21V24.4714L25.9455 18H27.7636V24.2571H29V25.7429H27.7636V28H26.0182ZM22.7455 24.2571H26.0182V19.9714L22.7455 24.2571Z" fill="white"/>
</svg>
