<svg width="244" height="31" viewBox="0 0 244 31" fill="none" xmlns="http://www.w3.org/2000/svg">
<path d="M20.8223 29.4599H20.2593C20.2593 29.454 20.2565 29.448 20.2553 29.4424L20.2399 29.374C20.2301 29.329 20.2194 29.2843 20.2083 29.24C20.2036 29.2192 20.1985 29.1984 20.1933 29.1775C20.1787 29.1191 20.1633 29.0607 20.1475 29.0023L20.1428 28.9856C20.1254 28.9223 20.1073 28.8593 20.0883 28.7966L20.0693 28.7359C20.0563 28.6928 20.0425 28.65 20.0299 28.6072C20.0224 28.5837 20.0145 28.5607 20.007 28.5376C19.9931 28.4963 19.9789 28.455 19.9643 28.4141C19.9568 28.3925 19.9489 28.3706 19.9414 28.3494C19.923 28.298 19.904 28.247 19.8845 28.1964C19.8802 28.1857 19.8767 28.1752 19.8723 28.1645C19.8494 28.1049 19.8253 28.0458 19.8008 27.9866C19.7922 27.965 19.7831 27.9438 19.774 27.9226C19.7574 27.8854 19.7408 27.8445 19.7238 27.8058L19.6919 27.734C19.6753 27.6968 19.6583 27.6596 19.6409 27.6224C19.6303 27.5993 19.6192 27.5759 19.6081 27.5528C19.588 27.51 19.5687 27.4676 19.5462 27.4256C19.5379 27.4096 19.5304 27.3932 19.5221 27.3768C19.494 27.3214 19.4652 27.2652 19.436 27.2116L19.3965 27.1421L19.3408 27.0412L19.2974 26.9668C19.2792 26.9356 19.2611 26.9043 19.2425 26.8731C19.2279 26.8478 19.2129 26.8225 19.1979 26.7987C19.1774 26.7648 19.1584 26.7317 19.1359 26.6982L19.079 26.6074C19.0522 26.5658 19.0253 26.5237 18.9977 26.4824C18.9803 26.4564 18.9629 26.4307 18.9452 26.405C18.9274 26.3794 18.9081 26.35 18.8891 26.3228C18.8701 26.2957 18.8496 26.2685 18.8322 26.2417C18.8149 26.2149 18.7959 26.1907 18.7774 26.1673C18.7588 26.1439 18.7379 26.1126 18.7177 26.0855L18.6621 26.011C18.6226 25.9616 18.5862 25.9121 18.5475 25.8622L18.4934 25.7941C18.4705 25.7655 18.4469 25.7372 18.4236 25.7089L18.3714 25.6464C18.3473 25.6178 18.3229 25.5895 18.2984 25.5609L18.247 25.5021L18.1704 25.4158L18.125 25.3659C18.0307 25.2629 17.9339 25.1613 17.8348 25.0623L17.7914 25.0188L17.7006 24.9306L17.6559 24.8882C17.6244 24.8581 17.5928 24.8283 17.5608 24.7989L17.528 24.7692C17.4163 24.6668 17.3014 24.5671 17.1845 24.4715L17.1525 24.4451C17.1164 24.4153 17.0801 24.3859 17.0435 24.3569L17.0072 24.3279C16.9677 24.2981 16.9318 24.2688 16.8935 24.2394L16.8741 24.2249C16.745 24.1266 16.6127 24.031 16.4792 23.9391L16.4607 23.9261C16.4184 23.8975 16.3762 23.8692 16.3335 23.8413L16.3055 23.823C16.2621 23.7944 16.2182 23.7665 16.1744 23.7386L16.1669 23.7341C16.0216 23.6426 15.8735 23.5549 15.7227 23.4711L15.7168 23.4674C15.669 23.441 15.6212 23.4153 15.5734 23.3896L15.5525 23.3784C15.2982 23.2433 15.0371 23.1193 14.7691 23.0064L14.7525 22.9993C14.6818 22.9696 14.6108 22.9409 14.5389 22.9126H15.9521C16.1823 22.9126 16.3691 22.663 16.3691 22.3546C16.3691 22.0461 16.1823 21.7965 15.9521 21.7965H15.5312C15.5572 21.734 15.5861 21.6633 15.6173 21.5837C16.0153 21.3501 16.7158 20.8523 17.4107 19.9378L17.4163 19.9307C17.4689 19.8622 17.5206 19.7914 17.5714 19.7183L17.5817 19.7037C17.6322 19.6319 17.6828 19.5579 17.7325 19.4805L17.746 19.4601C17.7697 19.4228 17.7934 19.3856 17.817 19.3484C17.817 19.3484 17.817 19.3455 17.8198 19.3436C17.8443 19.3064 17.8684 19.2655 17.8925 19.2257L17.9079 19.2C17.9284 19.1658 17.9493 19.1308 17.9695 19.0955C17.9734 19.0891 17.9774 19.0828 17.9809 19.0761C18.0042 19.0359 18.0275 18.995 18.0504 18.9537L18.0662 18.9251C18.0852 18.8908 18.1037 18.8562 18.1223 18.8213C18.1278 18.8116 18.1333 18.8015 18.1385 18.7915C18.1606 18.7494 18.1827 18.707 18.2048 18.6639L18.2202 18.6337C18.2376 18.5988 18.2553 18.5631 18.2727 18.5273L18.2917 18.4901C18.313 18.4462 18.3339 18.4016 18.3548 18.3566L18.3679 18.3279C18.3853 18.2907 18.4022 18.2535 18.4192 18.2163L18.4393 18.1717C18.4591 18.1266 18.4788 18.0813 18.4978 18.0355C18.5013 18.0273 18.5049 18.0187 18.5081 18.0106C18.5258 17.9685 18.5432 17.9257 18.5606 17.8826L18.5803 17.8335C18.5965 17.7925 18.6127 17.7512 18.6285 17.71L18.6403 17.6787C18.6589 17.6296 18.6771 17.5794 18.6952 17.5299L18.7142 17.4771C18.7284 17.4376 18.7422 17.3974 18.756 17.3572C18.7612 17.3424 18.7663 17.3275 18.771 17.3126C18.7884 17.2613 18.8058 17.2088 18.8228 17.1563C18.8283 17.1381 18.8342 17.1191 18.8397 17.102L18.8792 16.9796C18.8844 16.9618 18.8899 16.9424 18.895 16.9264C18.9112 16.8725 18.9274 16.8174 18.9428 16.762C18.9479 16.7445 18.9527 16.7266 18.9574 16.7088C18.9693 16.666 18.9811 16.6232 18.9926 16.5797C18.9977 16.56 19.0028 16.5402 19.0083 16.5205C19.023 16.4632 19.0376 16.4056 19.0518 16.3471L19.0636 16.2984C19.0747 16.2519 19.0857 16.205 19.0964 16.1578L19.1106 16.0945C19.124 16.0339 19.1375 15.9732 19.1501 15.9115C19.1529 15.8996 19.1552 15.8873 19.1576 15.8743C19.1687 15.8211 19.1793 15.7671 19.1896 15.7132C19.1939 15.6912 19.1979 15.6693 19.2022 15.6473C19.2125 15.5919 19.2224 15.5357 19.2322 15.4803C19.2342 15.4684 19.2366 15.4568 19.2386 15.4453C19.2496 15.3798 19.2604 15.3138 19.2709 15.2474C19.2745 15.2251 19.278 15.2027 19.2812 15.18C19.2895 15.1261 19.2974 15.0718 19.3053 15.0167L19.3124 14.9661C19.3219 14.8977 19.331 14.8288 19.3396 14.7589C19.3424 14.7369 19.3448 14.715 19.3475 14.6927C19.3544 14.6371 19.3607 14.5813 19.3665 14.5252C19.3689 14.5051 19.3712 14.4854 19.3732 14.4653C19.3808 14.3934 19.3879 14.3209 19.3945 14.2477C19.3945 14.2272 19.3981 14.2068 19.3997 14.1859C19.4048 14.1271 19.4099 14.068 19.4143 14.0085C19.4143 13.9865 19.4178 13.9646 19.4194 13.9426C19.4249 13.8667 19.4301 13.7903 19.4348 13.7134C19.4348 13.6959 19.4348 13.6762 19.4376 13.6606C19.4411 13.5966 19.4447 13.5322 19.4474 13.4675C19.4474 13.4441 19.4474 13.4206 19.4506 13.3972C19.4538 13.3172 19.4569 13.2368 19.4593 13.1554C19.4593 13.1442 19.4593 13.1327 19.4593 13.1211C19.4614 13.0487 19.463 12.9755 19.464 12.9016C19.464 12.8774 19.464 12.8533 19.464 12.8291C19.464 12.7497 19.464 12.6698 19.464 12.5895V12.5709C19.464 12.4853 19.464 12.3986 19.464 12.3104V12.236C19.464 12.1616 19.4609 12.0835 19.4589 12.0061V11.9641C19.4561 11.8748 19.4526 11.7844 19.449 11.6936C19.449 11.6701 19.4466 11.6463 19.4459 11.6229C19.4424 11.5465 19.4385 11.4696 19.434 11.3922C19.434 11.3733 19.434 11.355 19.4309 11.3346C19.4253 11.2416 19.4193 11.1478 19.4127 11.0533L19.408 10.9874C19.402 10.9086 19.3961 10.8293 19.3894 10.7493C19.3894 10.7263 19.3858 10.7032 19.3839 10.6801C19.3756 10.5834 19.3665 10.4856 19.357 10.3873C19.357 10.3687 19.3531 10.3501 19.3515 10.3312C19.3432 10.2474 19.3341 10.163 19.325 10.0778C19.3223 10.0521 19.3195 10.0268 19.3163 10.0011C19.3053 9.89995 19.2934 9.79839 19.2808 9.69533C19.2808 9.68268 19.2773 9.67003 19.2757 9.65812C19.2644 9.56586 19.2524 9.47309 19.2397 9.37983C19.2358 9.3523 19.2322 9.32477 19.2283 9.29724C19.2135 9.19158 19.1984 9.08505 19.1829 8.97765C17.6034 -1.61599 6.41061 0.103232 6.41061 0.103232L6.76915 2.37941L0 9.11717L0.295753 11.7189L2.86 13.2071C2.97431 12.9333 3.12108 12.6726 3.29751 12.4299C4.95199 10.6318 8.16183 9.22023 9.08068 8.92743C9.26469 8.86901 9.36933 8.83962 9.36933 8.83962C4.9741 14.1993 5.474 20.3396 5.66985 21.8032C5.4661 21.8404 5.30855 22.0722 5.30855 22.3549C5.30855 22.663 5.49532 22.913 5.72552 22.913H7.13874C4.78837 23.84 2.9227 25.6055 1.94905 27.824C1.9479 27.8271 1.94658 27.83 1.9451 27.833C1.87323 27.9976 1.80637 28.1647 1.74451 28.3341V28.3393C1.72793 28.3854 1.71174 28.4316 1.69594 28.4781C1.69002 28.4948 1.68409 28.5116 1.67857 28.5287C1.66435 28.5703 1.65119 28.6124 1.63908 28.6548C1.63197 28.6764 1.62526 28.6983 1.61855 28.7199C1.60591 28.7597 1.59367 28.7999 1.58183 28.8401L1.5605 28.9145C1.54945 28.9517 1.53839 28.9915 1.52813 29.0302C1.52062 29.0577 1.51351 29.0849 1.50641 29.1124C1.49693 29.1496 1.48706 29.1868 1.47798 29.224C1.4689 29.2612 1.46021 29.2984 1.45152 29.3379C1.44283 29.3773 1.43178 29.4235 1.4223 29.4666H0.858829C0.750475 29.4644 0.642737 29.4825 0.541935 29.52C0.441133 29.5576 0.349301 29.6137 0.271826 29.6851C0.19435 29.7565 0.132789 29.8418 0.0907628 29.9359C0.0487367 30.03 0.027089 30.1311 0.027089 30.2332C0.027089 30.3353 0.0487367 30.4364 0.0907628 30.5305C0.132789 30.6247 0.19435 30.7099 0.271826 30.7813C0.349301 30.8528 0.441133 30.9089 0.541935 30.9464C0.642737 30.9839 0.750475 31.0021 0.858829 30.9998H20.8295C20.9378 31.0021 21.0456 30.9839 21.1464 30.9464C21.2472 30.9089 21.339 30.8528 21.4165 30.7813C21.4939 30.7099 21.5555 30.6247 21.5975 30.5305C21.6396 30.4364 21.6612 30.3353 21.6612 30.2332C21.6612 30.1311 21.6396 30.03 21.5975 29.9359C21.5555 29.8418 21.4939 29.7565 21.4165 29.6851C21.339 29.6137 21.2472 29.5576 21.1464 29.52C21.0456 29.4825 20.9378 29.4644 20.8295 29.4666L20.8223 29.4599Z" fill="#595653"/>
<path d="M44.2163 29.4599H43.6533C43.6533 29.454 43.6505 29.448 43.6493 29.4424L43.6339 29.374C43.624 29.329 43.6134 29.2843 43.6023 29.24C43.5976 29.2192 43.5924 29.1984 43.5873 29.1775C43.5727 29.1191 43.5573 29.0607 43.5415 29.0023L43.5368 28.9856C43.5194 28.9223 43.5012 28.8593 43.4823 28.7966L43.4633 28.7359C43.4503 28.6928 43.4365 28.65 43.4238 28.6072C43.4163 28.5837 43.4084 28.5607 43.4009 28.5376C43.3871 28.4963 43.3729 28.455 43.3583 28.4141C43.3508 28.3925 43.3429 28.3706 43.3354 28.3494C43.317 28.298 43.298 28.247 43.2785 28.1964C43.2742 28.1857 43.2706 28.1752 43.2663 28.1645C43.2434 28.1049 43.2193 28.0458 43.1948 27.9866C43.1861 27.965 43.177 27.9438 43.168 27.9226C43.1514 27.8854 43.1348 27.8445 43.1178 27.8058L43.0858 27.734C43.0692 27.6968 43.0523 27.6596 43.0349 27.6224C43.0242 27.5993 43.0132 27.5759 43.0021 27.5528C42.982 27.51 42.9626 27.4676 42.9401 27.4256C42.9318 27.4096 42.9243 27.3932 42.916 27.3768C42.888 27.3214 42.8592 27.2652 42.83 27.2116L42.7905 27.1421L42.7348 27.0412L42.6914 26.9668C42.6732 26.9356 42.655 26.9043 42.6365 26.8731C42.6219 26.8478 42.6069 26.8225 42.5919 26.7987C42.5713 26.7648 42.5524 26.7317 42.5299 26.6982L42.473 26.6074C42.4462 26.5658 42.4193 26.5237 42.3917 26.4824C42.3743 26.4564 42.3569 26.4307 42.3391 26.405C42.3214 26.3794 42.302 26.35 42.2831 26.3228C42.2641 26.2957 42.2436 26.2685 42.2262 26.2417C42.2088 26.2149 42.1899 26.1907 42.1713 26.1673C42.1528 26.1439 42.1318 26.1126 42.1117 26.0855L42.056 26.011C42.0165 25.9616 41.9802 25.9121 41.9415 25.8622L41.8874 25.7941C41.8645 25.7655 41.8408 25.7372 41.8175 25.7089L41.7654 25.6464C41.7413 25.6178 41.7168 25.5895 41.6924 25.5609L41.641 25.5021L41.5644 25.4158L41.519 25.3659C41.4246 25.2629 41.3279 25.1613 41.2288 25.0623L41.1854 25.0188L41.0945 24.9306L41.0499 24.8882C41.0183 24.8581 40.9867 24.8283 40.9547 24.7989L40.922 24.7692C40.8102 24.6668 40.6953 24.5671 40.5785 24.4715L40.5465 24.4451C40.5104 24.4153 40.4741 24.3859 40.4375 24.3569L40.4011 24.3279C40.3617 24.2981 40.3257 24.2688 40.2874 24.2394L40.2681 24.2249C40.139 24.1266 40.0067 24.031 39.8732 23.9391L39.8547 23.9261C39.8124 23.8975 39.7702 23.8692 39.7275 23.8413L39.6995 23.823C39.656 23.7944 39.6122 23.7665 39.5684 23.7386L39.5609 23.7341C39.4156 23.6426 39.2675 23.5549 39.1167 23.4711L39.1107 23.4674C39.063 23.441 39.0152 23.4153 38.9674 23.3896L38.9465 23.3784C38.6922 23.2433 38.431 23.1193 38.1631 23.0064L38.1465 22.9993C38.0758 22.9696 38.0047 22.9409 37.9329 22.9126H39.3461C39.5763 22.9126 39.7631 22.663 39.7631 22.3546C39.7631 22.0461 39.5763 21.7965 39.3461 21.7965H38.9252C38.9512 21.734 38.98 21.6633 39.0112 21.5837C39.4093 21.3501 40.1097 20.8523 40.8047 19.9378L40.8102 19.9307C40.8629 19.8622 40.9146 19.7914 40.9654 19.7183L40.9757 19.7037C41.0262 19.6319 41.0768 19.5579 41.1265 19.4805L41.1399 19.4601C41.1636 19.4228 41.1873 19.3856 41.211 19.3484C41.211 19.3484 41.211 19.3455 41.2138 19.3436C41.2383 19.3064 41.2624 19.2655 41.2864 19.2257L41.3018 19.2C41.3224 19.1658 41.3433 19.1308 41.3634 19.0955C41.3674 19.0891 41.3713 19.0828 41.3749 19.0761C41.3982 19.0359 41.4215 18.995 41.4444 18.9537L41.4602 18.9251C41.4791 18.8908 41.4977 18.8562 41.5162 18.8213C41.5218 18.8116 41.5273 18.8015 41.5324 18.7915C41.5545 18.7494 41.5767 18.707 41.5988 18.6639L41.6142 18.6337C41.6316 18.5988 41.6493 18.5631 41.6667 18.5273L41.6856 18.4901C41.707 18.4462 41.7279 18.4016 41.7488 18.3566L41.7619 18.3279C41.7792 18.2907 41.7962 18.2535 41.8132 18.2163L41.8333 18.1717C41.8531 18.1266 41.8728 18.0813 41.8918 18.0355C41.8953 18.0273 41.8989 18.0187 41.902 18.0106C41.9198 17.9685 41.9372 17.9257 41.9545 17.8826L41.9743 17.8335C41.9905 17.7925 42.0067 17.7512 42.0225 17.71L42.0343 17.6787C42.0529 17.6296 42.071 17.5794 42.0892 17.5299L42.1082 17.4771C42.1224 17.4376 42.1362 17.3974 42.15 17.3572C42.1551 17.3424 42.1603 17.3275 42.165 17.3126C42.1824 17.2613 42.1998 17.2088 42.2167 17.1563C42.2223 17.1381 42.2282 17.1191 42.2337 17.102L42.2732 16.9796C42.2783 16.9618 42.2839 16.9424 42.289 16.9264C42.3052 16.8725 42.3214 16.8174 42.3368 16.762C42.3419 16.7445 42.3466 16.7266 42.3514 16.7088C42.3632 16.666 42.3751 16.6232 42.3865 16.5797C42.3917 16.56 42.3968 16.5402 42.4023 16.5205C42.4169 16.4632 42.4315 16.4056 42.4458 16.3471L42.4576 16.2984C42.4687 16.2519 42.4797 16.205 42.4904 16.1578L42.5046 16.0945C42.518 16.0339 42.5314 15.9732 42.5441 15.9115C42.5468 15.8996 42.5492 15.8873 42.5516 15.8743C42.5626 15.8211 42.5733 15.7671 42.5836 15.7132C42.5879 15.6912 42.5919 15.6693 42.5962 15.6473C42.6065 15.5919 42.6163 15.5357 42.6262 15.4803C42.6282 15.4684 42.6306 15.4568 42.6325 15.4453C42.6436 15.3798 42.6544 15.3138 42.6649 15.2474C42.6685 15.2251 42.672 15.2027 42.6752 15.18C42.6835 15.1261 42.6914 15.0718 42.6993 15.0167L42.7064 14.9661C42.7158 14.8977 42.7249 14.8288 42.7336 14.7589C42.7364 14.7369 42.7387 14.715 42.7415 14.6927C42.7484 14.6371 42.7547 14.5813 42.7605 14.5252C42.7628 14.5051 42.7652 14.4854 42.7672 14.4653C42.7748 14.3934 42.7819 14.3209 42.7885 14.2477C42.7885 14.2272 42.7921 14.2068 42.7936 14.1859C42.7988 14.1271 42.8039 14.068 42.8082 14.0085C42.8082 13.9865 42.8118 13.9646 42.8134 13.9426C42.8189 13.8667 42.824 13.7903 42.8288 13.7134C42.8288 13.6959 42.8288 13.6762 42.8315 13.6606C42.8351 13.5966 42.8386 13.5322 42.8414 13.4675C42.8414 13.4441 42.8414 13.4206 42.8446 13.3972C42.8477 13.3172 42.8509 13.2368 42.8533 13.1554C42.8533 13.1442 42.8533 13.1327 42.8533 13.1211C42.8554 13.0487 42.8569 12.9755 42.858 12.9016C42.858 12.8774 42.858 12.8533 42.858 12.8291C42.858 12.7497 42.858 12.6698 42.858 12.5895V12.5709C42.858 12.4853 42.858 12.3986 42.858 12.3104V12.236C42.858 12.1616 42.8548 12.0835 42.8529 12.0061V11.9641C42.8501 11.8748 42.8465 11.7844 42.843 11.6936C42.843 11.6701 42.8406 11.6463 42.8398 11.6229C42.8364 11.5465 42.8325 11.4696 42.828 11.3922C42.828 11.3733 42.828 11.355 42.8248 11.3346C42.8193 11.2416 42.8132 11.1478 42.8067 11.0533L42.8019 10.9874C42.796 10.9086 42.7901 10.8293 42.7834 10.7493C42.7834 10.7263 42.7798 10.7032 42.7778 10.6801C42.7695 10.5834 42.7605 10.4856 42.751 10.3873C42.751 10.3687 42.747 10.3501 42.7455 10.3312C42.7372 10.2474 42.7281 10.163 42.719 10.0778C42.7162 10.0521 42.7135 10.0268 42.7103 10.0011C42.6993 9.89995 42.6874 9.79839 42.6748 9.69533C42.6748 9.68268 42.6712 9.67003 42.6696 9.65812C42.6583 9.56586 42.6463 9.47309 42.6337 9.37983C42.6298 9.3523 42.6262 9.32477 42.6223 9.29724C42.6075 9.19158 42.5924 9.08505 42.5769 8.97765C40.9974 -1.61599 29.8046 0.103232 29.8046 0.103232L30.1631 2.37941L23.394 9.11717L23.6897 11.7189L26.254 13.2071C26.3683 12.9333 26.515 12.6726 26.6915 12.4299C28.346 10.6318 31.5558 9.22023 32.4747 8.92743C32.6587 8.86901 32.7633 8.83962 32.7633 8.83962C28.3681 14.1993 28.868 20.3396 29.0638 21.8032C28.8601 21.8404 28.7025 22.0722 28.7025 22.3549C28.7025 22.663 28.8893 22.913 29.1195 22.913H30.5327C28.1823 23.84 26.3167 25.6055 25.343 27.824C25.3419 27.8271 25.3406 27.83 25.3391 27.833C25.2672 27.9976 25.2003 28.1647 25.1385 28.3341V28.3393C25.1219 28.3854 25.1057 28.4316 25.0899 28.4781C25.084 28.4948 25.0781 28.5116 25.0725 28.5287C25.0583 28.5703 25.0452 28.6124 25.0331 28.6548C25.0259 28.6764 25.0192 28.6983 25.0125 28.7199C24.9999 28.7597 24.9876 28.7999 24.9758 28.8401L24.9545 28.9145C24.9434 28.9517 24.9324 28.9915 24.9221 29.0302C24.9146 29.0577 24.9075 29.0849 24.9004 29.1124C24.8909 29.1496 24.881 29.1868 24.8719 29.224C24.8629 29.2612 24.8542 29.2984 24.8455 29.3379C24.8368 29.3773 24.8258 29.4235 24.8163 29.4666H24.2528C24.1444 29.4644 24.0367 29.4825 23.9359 29.52C23.8351 29.5576 23.7433 29.6137 23.6658 29.6851C23.5883 29.7565 23.5268 29.8418 23.4847 29.9359C23.4427 30.03 23.4211 30.1311 23.4211 30.2332C23.4211 30.3353 23.4427 30.4364 23.4847 30.5305C23.5268 30.6247 23.5883 30.7099 23.6658 30.7813C23.7433 30.8528 23.8351 30.9089 23.9359 30.9464C24.0367 30.9839 24.1444 31.0021 24.2528 30.9998H44.2234C44.3318 31.0021 44.4395 30.9839 44.5403 30.9464C44.6411 30.9089 44.733 30.8528 44.8104 30.7813C44.8879 30.7099 44.9495 30.6247 44.9915 30.5305C45.0335 30.4364 45.0552 30.3353 45.0552 30.2332C45.0552 30.1311 45.0335 30.03 44.9915 29.9359C44.9495 29.8418 44.8879 29.7565 44.8104 29.6851C44.733 29.6137 44.6411 29.5576 44.5403 29.52C44.4395 29.4825 44.3318 29.4644 44.2234 29.4666L44.2163 29.4599Z" fill="#595653"/>
<path d="M67.6108 29.4599H67.0477C67.0477 29.454 67.0449 29.448 67.0438 29.4424L67.0284 29.374C67.0185 29.329 67.0078 29.2843 66.9968 29.24C66.992 29.2192 66.9869 29.1984 66.9818 29.1775C66.9672 29.1191 66.9518 29.0607 66.936 29.0023L66.9312 28.9856C66.9139 28.9223 66.8957 28.8593 66.8767 28.7966L66.8578 28.7359C66.8448 28.6928 66.8309 28.65 66.8183 28.6072C66.8108 28.5837 66.8029 28.5607 66.7954 28.5376C66.7816 28.4963 66.7674 28.455 66.7527 28.4141C66.7452 28.3925 66.7374 28.3706 66.7298 28.3494C66.7114 28.298 66.6925 28.247 66.673 28.1964C66.6686 28.1857 66.6651 28.1752 66.6607 28.1645C66.6378 28.1049 66.6138 28.0458 66.5893 27.9866C66.5806 27.965 66.5715 27.9438 66.5624 27.9226C66.5458 27.8854 66.5293 27.8445 66.5123 27.8058L66.4803 27.734C66.4637 27.6968 66.4467 27.6596 66.4294 27.6224C66.4187 27.5993 66.4076 27.5759 66.3966 27.5528C66.3764 27.51 66.3571 27.4676 66.3346 27.4256C66.3263 27.4096 66.3188 27.3932 66.3105 27.3768C66.2825 27.3214 66.2536 27.2652 66.2244 27.2116L66.1849 27.1421L66.1293 27.0412L66.0858 26.9668C66.0677 26.9356 66.0495 26.9043 66.0309 26.8731C66.0163 26.8478 66.0013 26.8225 65.9863 26.7987C65.9658 26.7648 65.9468 26.7317 65.9243 26.6982L65.8675 26.6074C65.8406 26.5658 65.8138 26.5237 65.7861 26.4824C65.7687 26.4564 65.7514 26.4307 65.7336 26.405C65.7158 26.3794 65.6965 26.35 65.6775 26.3228C65.6586 26.2957 65.638 26.2685 65.6207 26.2417C65.6033 26.2149 65.5843 26.1907 65.5658 26.1673C65.5472 26.1439 65.5263 26.1126 65.5062 26.0855L65.4505 26.011C65.411 25.9616 65.3747 25.9121 65.336 25.8622L65.2819 25.7941C65.259 25.7655 65.2353 25.7372 65.212 25.7089L65.1599 25.6464C65.1358 25.6178 65.1113 25.5895 65.0868 25.5609L65.0355 25.5021L64.9589 25.4158L64.9135 25.3659C64.8191 25.2629 64.7224 25.1613 64.6233 25.0623L64.5798 25.0188L64.489 24.9306L64.4444 24.8882C64.4128 24.8581 64.3812 24.8283 64.3492 24.7989L64.3164 24.7692C64.2047 24.6668 64.0898 24.5671 63.9729 24.4715L63.9409 24.4451C63.9049 24.4153 63.8685 24.3859 63.8319 24.3569L63.7956 24.3279C63.7561 24.2981 63.7202 24.2688 63.6819 24.2394L63.6625 24.2249C63.5334 24.1266 63.4011 24.031 63.2677 23.9391L63.2491 23.9261C63.2069 23.8975 63.1646 23.8692 63.122 23.8413L63.0939 23.823C63.0505 23.7944 63.0067 23.7665 62.9628 23.7386L62.9553 23.7341C62.81 23.6426 62.662 23.5549 62.5111 23.4711L62.5052 23.4674C62.4574 23.441 62.4096 23.4153 62.3619 23.3896L62.3409 23.3784C62.0866 23.2433 61.8255 23.1193 61.5575 23.0064L61.5409 22.9993C61.4703 22.9696 61.3992 22.9409 61.3273 22.9126H62.7405C62.9707 22.9126 63.1575 22.663 63.1575 22.3546C63.1575 22.0461 62.9707 21.7965 62.7405 21.7965H62.3196C62.3457 21.734 62.3745 21.6633 62.4057 21.5837C62.8037 21.3501 63.5042 20.8523 64.1992 19.9378L64.2047 19.9307C64.2573 19.8622 64.3091 19.7914 64.3599 19.7183L64.3701 19.7037C64.4207 19.6319 64.4712 19.5579 64.521 19.4805L64.5344 19.4601C64.5581 19.4228 64.5818 19.3856 64.6055 19.3484C64.6055 19.3484 64.6055 19.3455 64.6082 19.3436C64.6327 19.3064 64.6568 19.2655 64.6809 19.2257L64.6963 19.2C64.7168 19.1658 64.7378 19.1308 64.7579 19.0955C64.7618 19.0891 64.7658 19.0828 64.7693 19.0761C64.7926 19.0359 64.8159 18.995 64.8388 18.9537L64.8546 18.9251C64.8736 18.8908 64.8922 18.8562 64.9107 18.8213C64.9162 18.8116 64.9218 18.8015 64.9269 18.7915C64.949 18.7494 64.9711 18.707 64.9932 18.6639L65.0086 18.6337C65.026 18.5988 65.0438 18.5631 65.0612 18.5273L65.0801 18.4901C65.1014 18.4462 65.1224 18.4016 65.1433 18.3566L65.1563 18.3279C65.1737 18.2907 65.1907 18.2535 65.2076 18.2163L65.2278 18.1717C65.2475 18.1266 65.2673 18.0813 65.2862 18.0355C65.2898 18.0273 65.2933 18.0187 65.2965 18.0106C65.3143 17.9685 65.3316 17.9257 65.349 17.8826L65.3688 17.8335C65.3849 17.7925 65.4011 17.7512 65.4169 17.71L65.4288 17.6787C65.4473 17.6296 65.4655 17.5794 65.4837 17.5299L65.5026 17.4771C65.5168 17.4376 65.5306 17.3974 65.5445 17.3572C65.5496 17.3424 65.5547 17.3275 65.5595 17.3126C65.5768 17.2613 65.5942 17.2088 65.6112 17.1563C65.6167 17.1381 65.6226 17.1191 65.6282 17.102L65.6677 16.9796C65.6728 16.9618 65.6783 16.9424 65.6835 16.9264C65.6996 16.8725 65.7158 16.8174 65.7312 16.762C65.7364 16.7445 65.7411 16.7266 65.7458 16.7088C65.7577 16.666 65.7695 16.6232 65.781 16.5797C65.7861 16.56 65.7913 16.5402 65.7968 16.5205C65.8114 16.4632 65.826 16.4056 65.8402 16.3471L65.8521 16.2984C65.8631 16.2519 65.8742 16.205 65.8848 16.1578L65.8991 16.0945C65.9125 16.0339 65.9259 15.9732 65.9385 15.9115C65.9413 15.8996 65.9437 15.8873 65.946 15.8743C65.9571 15.8211 65.9678 15.7671 65.978 15.7132C65.9824 15.6912 65.9863 15.6693 65.9907 15.6473C66.0009 15.5919 66.0108 15.5357 66.0207 15.4803C66.0226 15.4684 66.025 15.4568 66.027 15.4453C66.038 15.3798 66.0488 15.3138 66.0594 15.2474C66.0629 15.2251 66.0665 15.2027 66.0696 15.18C66.0779 15.1261 66.0858 15.0718 66.0937 15.0167L66.1008 14.9661C66.1103 14.8977 66.1194 14.8288 66.1281 14.7589C66.1308 14.7369 66.1332 14.715 66.136 14.6927C66.1428 14.6371 66.1491 14.5813 66.1549 14.5252C66.1573 14.5051 66.1597 14.4854 66.1616 14.4653C66.1693 14.3934 66.1764 14.3209 66.183 14.2477C66.183 14.2272 66.1865 14.2068 66.1881 14.1859C66.1932 14.1271 66.1984 14.068 66.2027 14.0085C66.2027 13.9865 66.2063 13.9646 66.2078 13.9426C66.2134 13.8667 66.2185 13.7903 66.2232 13.7134C66.2232 13.6959 66.2232 13.6762 66.226 13.6606C66.2296 13.5966 66.2331 13.5322 66.2359 13.4675C66.2359 13.4441 66.2359 13.4206 66.239 13.3972C66.2422 13.3172 66.2454 13.2368 66.2477 13.1554C66.2477 13.1442 66.2477 13.1327 66.2477 13.1211C66.2498 13.0487 66.2514 12.9755 66.2525 12.9016C66.2525 12.8774 66.2525 12.8533 66.2525 12.8291C66.2525 12.7497 66.2525 12.6698 66.2525 12.5895V12.5709C66.2525 12.4853 66.2525 12.3986 66.2525 12.3104V12.236C66.2525 12.1616 66.2493 12.0835 66.2473 12.0061V11.9641C66.2446 11.8748 66.241 11.7844 66.2375 11.6936C66.2375 11.6701 66.2351 11.6463 66.2343 11.6229C66.2309 11.5465 66.2269 11.4696 66.2224 11.3922C66.2224 11.3733 66.2224 11.355 66.2193 11.3346C66.2138 11.2416 66.2077 11.1478 66.2011 11.0533L66.1964 10.9874C66.1905 10.9086 66.1845 10.8293 66.1778 10.7493C66.1778 10.7263 66.1743 10.7032 66.1723 10.6801C66.164 10.5834 66.1549 10.4856 66.1454 10.3873C66.1454 10.3687 66.1415 10.3501 66.1399 10.3312C66.1316 10.2474 66.1225 10.163 66.1135 10.0778C66.1107 10.0521 66.1079 10.0268 66.1048 10.0011C66.0937 9.89995 66.0819 9.79839 66.0692 9.69533C66.0692 9.68268 66.0657 9.67003 66.0641 9.65812C66.0528 9.56586 66.0408 9.47309 66.0282 9.37983C66.0242 9.3523 66.0207 9.32477 66.0167 9.29724C66.002 9.19158 65.9868 9.08505 65.9713 8.97765C64.3919 -1.61599 53.199 0.103232 53.199 0.103232L53.5576 2.37941L46.7884 9.11717L47.0842 11.7189L49.6484 13.2071C49.7627 12.9333 49.9095 12.6726 50.0859 12.4299C51.7404 10.6318 54.9503 9.22023 55.8691 8.92743C56.0531 8.86901 56.1578 8.83962 56.1578 8.83962C51.7625 14.1993 52.2624 20.3396 52.4583 21.8032C52.2545 21.8404 52.097 22.0722 52.097 22.3549C52.097 22.663 52.2838 22.913 52.514 22.913H53.9272C51.5768 23.84 49.7111 25.6055 48.7375 27.824C48.7363 27.8271 48.735 27.83 48.7335 27.833C48.6617 27.9976 48.5948 28.1647 48.5329 28.3341V28.3393C48.5164 28.3854 48.5002 28.4316 48.4844 28.4781C48.4785 28.4948 48.4725 28.5116 48.467 28.5287C48.4528 28.5703 48.4396 28.6124 48.4275 28.6548C48.4204 28.6764 48.4137 28.6983 48.407 28.7199C48.3943 28.7597 48.3821 28.7999 48.3703 28.8401L48.3489 28.9145C48.3379 28.9517 48.3268 28.9915 48.3166 29.0302C48.3091 29.0577 48.3019 29.0849 48.2948 29.1124C48.2854 29.1496 48.2755 29.1868 48.2664 29.224C48.2573 29.2612 48.2486 29.2984 48.24 29.3379C48.2313 29.3773 48.2202 29.4235 48.2107 29.4666H47.6473C47.5389 29.4644 47.4312 29.4825 47.3304 29.52C47.2296 29.5576 47.1377 29.6137 47.0603 29.6851C46.9828 29.7565 46.9212 29.8418 46.8792 29.9359C46.8372 30.03 46.8155 30.1311 46.8155 30.2332C46.8155 30.3353 46.8372 30.4364 46.8792 30.5305C46.9212 30.6247 46.9828 30.7099 47.0603 30.7813C47.1377 30.8528 47.2296 30.9089 47.3304 30.9464C47.4312 30.9839 47.5389 31.0021 47.6473 30.9998H67.6179C67.7262 31.0021 67.834 30.9839 67.9348 30.9464C68.0356 30.9089 68.1274 30.8528 68.2049 30.7813C68.2824 30.7099 68.3439 30.6247 68.386 30.5305C68.428 30.4364 68.4496 30.3353 68.4496 30.2332C68.4496 30.1311 68.428 30.03 68.386 29.9359C68.3439 29.8418 68.2824 29.7565 68.2049 29.6851C68.1274 29.6137 68.0356 29.5576 67.9348 29.52C67.834 29.4825 67.7262 29.4644 67.6179 29.4666L67.6108 29.4599Z" fill="#595653"/>
<path d="M91.0048 29.4599H90.4417C90.4417 29.454 90.4389 29.448 90.4377 29.4424L90.4223 29.374C90.4125 29.329 90.4018 29.2843 90.3908 29.24C90.386 29.2192 90.3809 29.1984 90.3757 29.1775C90.3611 29.1191 90.3457 29.0607 90.3299 29.0023L90.3252 28.9856C90.3078 28.9223 90.2897 28.8593 90.2707 28.7966L90.2518 28.7359C90.2387 28.6928 90.2249 28.65 90.2123 28.6072C90.2048 28.5837 90.1969 28.5607 90.1894 28.5376C90.1755 28.4963 90.1613 28.455 90.1467 28.4141C90.1392 28.3925 90.1313 28.3706 90.1238 28.3494C90.1054 28.298 90.0864 28.247 90.067 28.1964C90.0626 28.1857 90.0591 28.1752 90.0547 28.1645C90.0318 28.1049 90.0077 28.0458 89.9832 27.9866C89.9746 27.965 89.9655 27.9438 89.9564 27.9226C89.9398 27.8854 89.9232 27.8445 89.9063 27.8058L89.8743 27.734C89.8577 27.6968 89.8407 27.6596 89.8233 27.6224C89.8127 27.5993 89.8016 27.5759 89.7906 27.5528C89.7704 27.51 89.7511 27.4676 89.7286 27.4256C89.7203 27.4096 89.7128 27.3932 89.7045 27.3768C89.6764 27.3214 89.6476 27.2652 89.6184 27.2116L89.5789 27.1421L89.5232 27.0412L89.4798 26.9668C89.4616 26.9356 89.4435 26.9043 89.4249 26.8731C89.4103 26.8478 89.3953 26.8225 89.3803 26.7987C89.3598 26.7648 89.3408 26.7317 89.3183 26.6982L89.2614 26.6074C89.2346 26.5658 89.2077 26.5237 89.1801 26.4824C89.1627 26.4564 89.1454 26.4307 89.1276 26.405C89.1098 26.3794 89.0905 26.35 89.0715 26.3228C89.0526 26.2957 89.032 26.2685 89.0147 26.2417C88.9973 26.2149 88.9783 26.1907 88.9598 26.1673C88.9412 26.1439 88.9203 26.1126 88.9001 26.0855L88.8445 26.011C88.805 25.9616 88.7687 25.9121 88.73 25.8622L88.6759 25.7941C88.653 25.7655 88.6293 25.7372 88.606 25.7089L88.5538 25.6464C88.5298 25.6178 88.5053 25.5895 88.4808 25.5609L88.4295 25.5021L88.3529 25.4158L88.3074 25.3659C88.2131 25.2629 88.1163 25.1613 88.0172 25.0623L87.9738 25.0188L87.883 24.9306L87.8384 24.8882C87.8068 24.8581 87.7752 24.8283 87.7432 24.7989L87.7104 24.7692C87.5987 24.6668 87.4838 24.5671 87.3669 24.4715L87.3349 24.4451C87.2988 24.4153 87.2625 24.3859 87.2259 24.3569L87.1896 24.3279C87.1501 24.2981 87.1142 24.2688 87.0759 24.2394L87.0565 24.2249C86.9274 24.1266 86.7951 24.031 86.6617 23.9391L86.6431 23.9261C86.6008 23.8975 86.5586 23.8692 86.516 23.8413L86.4879 23.823C86.4445 23.7944 86.4007 23.7665 86.3568 23.7386L86.3493 23.7341C86.204 23.6426 86.0559 23.5549 85.9051 23.4711L85.8992 23.4674C85.8514 23.441 85.8036 23.4153 85.7558 23.3896L85.7349 23.3784C85.4806 23.2433 85.2195 23.1193 84.9515 23.0064L84.9349 22.9993C84.8642 22.9696 84.7932 22.9409 84.7213 22.9126H86.1345C86.3647 22.9126 86.5515 22.663 86.5515 22.3546C86.5515 22.0461 86.3647 21.7965 86.1345 21.7965H85.7136C85.7396 21.734 85.7685 21.6633 85.7997 21.5837C86.1977 21.3501 86.8982 20.8523 87.5931 19.9378L87.5987 19.9307C87.6513 19.8622 87.703 19.7914 87.7538 19.7183L87.7641 19.7037C87.8147 19.6319 87.8652 19.5579 87.915 19.4805L87.9284 19.4601C87.9521 19.4228 87.9758 19.3856 87.9994 19.3484C87.9994 19.3484 87.9995 19.3455 88.0022 19.3436C88.0267 19.3064 88.0508 19.2655 88.0749 19.2257L88.0903 19.2C88.1108 19.1658 88.1317 19.1308 88.1519 19.0955C88.1558 19.0891 88.1598 19.0828 88.1633 19.0761C88.1866 19.0359 88.2099 18.995 88.2328 18.9537L88.2486 18.9251C88.2676 18.8908 88.2861 18.8562 88.3047 18.8213C88.3102 18.8116 88.3157 18.8015 88.3209 18.7915C88.343 18.7494 88.3651 18.707 88.3872 18.6639L88.4026 18.6337C88.42 18.5988 88.4378 18.5631 88.4551 18.5273L88.4741 18.4901C88.4954 18.4462 88.5163 18.4016 88.5373 18.3566L88.5503 18.3279C88.5677 18.2907 88.5846 18.2535 88.6016 18.2163L88.6218 18.1717C88.6415 18.1266 88.6612 18.0813 88.6802 18.0355C88.6838 18.0273 88.6873 18.0187 88.6905 18.0106C88.7082 17.9685 88.7256 17.9257 88.743 17.8826L88.7627 17.8335C88.7789 17.7925 88.7951 17.7512 88.8109 17.71L88.8227 17.6787C88.8413 17.6296 88.8595 17.5794 88.8776 17.5299L88.8966 17.4771C88.9108 17.4376 88.9246 17.3974 88.9384 17.3572C88.9436 17.3424 88.9487 17.3275 88.9534 17.3126C88.9708 17.2613 88.9882 17.2088 89.0052 17.1563C89.0107 17.1381 89.0166 17.1191 89.0222 17.102L89.0616 16.9796C89.0668 16.9618 89.0723 16.9424 89.0774 16.9264C89.0936 16.8725 89.1098 16.8174 89.1252 16.762C89.1303 16.7445 89.1351 16.7266 89.1398 16.7088C89.1517 16.666 89.1635 16.6232 89.175 16.5797C89.1801 16.56 89.1852 16.5402 89.1908 16.5205C89.2054 16.4632 89.22 16.4056 89.2342 16.3471L89.246 16.2984C89.2571 16.2519 89.2682 16.205 89.2788 16.1578L89.293 16.0945C89.3065 16.0339 89.3199 15.9732 89.3325 15.9115C89.3353 15.8996 89.3376 15.8873 89.34 15.8743C89.3511 15.8211 89.3617 15.7671 89.372 15.7132C89.3763 15.6912 89.3803 15.6693 89.3846 15.6473C89.3949 15.5919 89.4048 15.5357 89.4146 15.4803C89.4166 15.4684 89.419 15.4568 89.421 15.4453C89.432 15.3798 89.4428 15.3138 89.4533 15.2474C89.4569 15.2251 89.4605 15.2027 89.4636 15.18C89.4719 15.1261 89.4798 15.0718 89.4877 15.0167L89.4948 14.9661C89.5043 14.8977 89.5134 14.8288 89.5221 14.7589C89.5248 14.7369 89.5272 14.715 89.5299 14.6927C89.5368 14.6371 89.5431 14.5813 89.5489 14.5252C89.5513 14.5051 89.5536 14.4854 89.5556 14.4653C89.5632 14.3934 89.5704 14.3209 89.5769 14.2477C89.5769 14.2272 89.5805 14.2068 89.5821 14.1859C89.5872 14.1271 89.5923 14.068 89.5967 14.0085C89.5967 13.9865 89.6002 13.9646 89.6018 13.9426C89.6073 13.8667 89.6125 13.7903 89.6172 13.7134C89.6172 13.6959 89.6172 13.6762 89.62 13.6606C89.6235 13.5966 89.6271 13.5322 89.6299 13.4675C89.6299 13.4441 89.6298 13.4206 89.633 13.3972C89.6362 13.3172 89.6393 13.2368 89.6417 13.1554C89.6417 13.1442 89.6417 13.1327 89.6417 13.1211C89.6438 13.0487 89.6454 12.9755 89.6464 12.9016C89.6464 12.8774 89.6464 12.8533 89.6464 12.8291C89.6464 12.7497 89.6464 12.6698 89.6464 12.5895V12.5709C89.6464 12.4853 89.6464 12.3986 89.6464 12.3104V12.236C89.6464 12.1616 89.6433 12.0835 89.6413 12.0061V11.9641C89.6385 11.8748 89.635 11.7844 89.6314 11.6936C89.6314 11.6701 89.6291 11.6463 89.6283 11.6229C89.6248 11.5465 89.6209 11.4696 89.6164 11.3922C89.6164 11.3733 89.6164 11.355 89.6133 11.3346C89.6077 11.2416 89.6017 11.1478 89.5951 11.0533L89.5904 10.9874C89.5844 10.9086 89.5785 10.8293 89.5718 10.7493C89.5718 10.7263 89.5682 10.7032 89.5663 10.6801C89.558 10.5834 89.5489 10.4856 89.5394 10.3873C89.5394 10.3687 89.5355 10.3501 89.5339 10.3312C89.5256 10.2474 89.5165 10.163 89.5074 10.0778C89.5047 10.0521 89.5019 10.0268 89.4988 10.0011C89.4877 9.89995 89.4758 9.79839 89.4632 9.69533C89.4632 9.68268 89.4597 9.67003 89.4581 9.65812C89.4468 9.56586 89.4348 9.47309 89.4221 9.37983C89.4182 9.3523 89.4146 9.32477 89.4107 9.29724C89.396 9.19158 89.3808 9.08505 89.3653 8.97765C87.7858 -1.61599 76.593 0.103232 76.593 0.103232L76.9516 2.37941L70.1824 9.11717L70.4782 11.7189L73.0424 13.2071C73.1567 12.9333 73.3035 12.6726 73.4799 12.4299C75.1344 10.6318 78.3442 9.22023 79.2631 8.92743C79.4471 8.86901 79.5517 8.83962 79.5517 8.83962C75.1565 14.1993 75.6564 20.3396 75.8523 21.8032C75.6485 21.8404 75.491 22.0722 75.491 22.3549C75.491 22.663 75.6777 22.913 75.9079 22.913H77.3212C74.9708 23.84 73.1051 25.6055 72.1315 27.824C72.1303 27.8271 72.129 27.83 72.1275 27.833C72.0556 27.9976 71.9888 28.1647 71.9269 28.3341V28.3393C71.9103 28.3854 71.8941 28.4316 71.8784 28.4781C71.8724 28.4948 71.8665 28.5116 71.861 28.5287C71.8468 28.5703 71.8336 28.6124 71.8215 28.6548C71.8144 28.6764 71.8077 28.6983 71.801 28.7199C71.7883 28.7597 71.7761 28.7999 71.7642 28.8401L71.7429 28.9145C71.7319 28.9517 71.7208 28.9915 71.7105 29.0302C71.703 29.0577 71.6959 29.0849 71.6888 29.1124C71.6793 29.1496 71.6695 29.1868 71.6604 29.224C71.6513 29.2612 71.6426 29.2984 71.6339 29.3379C71.6252 29.3773 71.6142 29.4235 71.6047 29.4666H71.0412C70.9329 29.4644 70.8251 29.4825 70.7243 29.52C70.6235 29.5576 70.5317 29.6137 70.4542 29.6851C70.3768 29.7565 70.3152 29.8418 70.2732 29.9359C70.2311 30.03 70.2095 30.1311 70.2095 30.2332C70.2095 30.3353 70.2311 30.4364 70.2732 30.5305C70.3152 30.6247 70.3768 30.7099 70.4542 30.7813C70.5317 30.8528 70.6235 30.9089 70.7243 30.9464C70.8251 30.9839 70.9329 31.0021 71.0412 30.9998H91.0119C91.1202 31.0021 91.228 30.9839 91.3288 30.9464C91.4296 30.9089 91.5214 30.8528 91.5989 30.7813C91.6764 30.7099 91.7379 30.6247 91.7799 30.5305C91.822 30.4364 91.8436 30.3353 91.8436 30.2332C91.8436 30.1311 91.822 30.03 91.7799 29.9359C91.7379 29.8418 91.6764 29.7565 91.5989 29.6851C91.5214 29.6137 91.4296 29.5576 91.3288 29.52C91.228 29.4825 91.1202 29.4644 91.0119 29.4666L91.0048 29.4599Z" fill="#595653"/>
<path d="M99.3634 12.6156V1.02818H102.361V5.6135H103.194L106.759 1.02818H110.023L105.526 6.44117L110.19 12.6156H106.692L103.194 7.69924H102.361V12.6156H99.3634Z" fill="#595653"/>
<path d="M111.855 12.8308C111.767 12.8308 111.639 12.8253 111.472 12.8143C111.317 12.8143 111.195 12.8032 111.106 12.7812V10.1657C111.139 10.1767 111.222 10.1823 111.356 10.1823C111.578 10.1823 111.767 10.1547 111.922 10.0995C112.089 10.0333 112.227 9.90086 112.338 9.70221C112.449 9.49254 112.544 9.18905 112.622 8.79177C112.71 8.39449 112.772 7.86478 112.805 7.20264C112.838 6.52946 112.855 5.68523 112.855 4.66995V1.02818H121.683V12.6156H118.668V3.46155H115.653V5.00102C115.653 6.38048 115.597 7.53922 115.486 8.47725C115.375 9.40425 115.209 10.1547 114.987 10.7285C114.776 11.3024 114.515 11.7438 114.204 12.0528C113.893 12.3508 113.538 12.5549 113.138 12.6653C112.749 12.7756 112.322 12.8308 111.855 12.8308Z" fill="#595653"/>
<path d="M126.354 12.8308C126.232 12.8308 126.11 12.8253 125.988 12.8143C125.877 12.8143 125.777 12.7977 125.688 12.7646V10.2981C125.777 10.3092 125.865 10.3202 125.954 10.3312C126.043 10.3423 126.149 10.3478 126.271 10.3478C126.593 10.3478 126.843 10.3257 127.02 10.2816C127.198 10.2264 127.337 10.1381 127.437 10.0167C127.537 9.8843 127.62 9.70773 127.687 9.48702L123.006 1.02818H126.054L129.152 6.90467L131.584 1.02818H134.516L130.618 9.78498C130.363 10.3588 130.107 10.8389 129.852 11.2251C129.608 11.6114 129.324 11.9259 129.002 12.1687C128.691 12.4004 128.319 12.566 127.886 12.6653C127.464 12.7756 126.954 12.8308 126.354 12.8308Z" fill="#595653"/>
<path d="M135.847 12.6156V1.02818H144.425V3.4781H138.845V5.19966H140.761C142.382 5.19966 143.576 5.53073 144.342 6.19287C145.119 6.84398 145.508 7.72131 145.508 8.82488C145.508 10.0167 145.119 10.9492 144.342 11.6224C143.576 12.2846 142.382 12.6156 140.761 12.6156H135.847ZM138.845 10.1657H140.428C141.15 10.1657 141.66 10.0498 141.96 9.81809C142.26 9.5753 142.41 9.24423 142.41 8.82488C142.41 8.40552 142.26 8.07997 141.96 7.84822C141.66 7.60544 141.15 7.48405 140.428 7.48405H138.845V10.1657Z" fill="#595653"/>
<path d="M105.426 30.5099V25.8915C105.137 26.0791 104.754 26.2502 104.277 26.4047C103.811 26.5481 103.255 26.6199 102.611 26.6199C101.401 26.6199 100.485 26.3219 99.863 25.726C99.2523 25.119 98.947 24.1479 98.947 22.8126V18.9225H101.945V22.316C101.945 22.9671 102.084 23.4361 102.361 23.723C102.639 23.9989 103.028 24.1368 103.527 24.1368C103.983 24.1368 104.366 24.0872 104.677 23.9879C104.988 23.8775 105.237 23.7616 105.426 23.6402V18.9225H108.441V30.5099H105.426Z" fill="#595653"/>
<path d="M110.766 30.5099V18.9225H119.26V21.2069H113.764V23.4747H118.761V25.6267H113.764V28.2256H119.26V30.5099H110.766Z" fill="#595653"/>
<path d="M124.249 30.5099V21.3724H120.668V18.9225H130.828V21.3724H127.247V30.5099H124.249Z" fill="#595653"/>
<path d="M132.334 30.5099V18.9225H135.332V22.7629H136.748C138.369 22.7629 139.563 23.1105 140.329 23.8058C141.106 24.501 141.495 25.4446 141.495 26.6364C141.495 27.8283 141.106 28.7718 140.329 29.4671C139.563 30.1623 138.369 30.5099 136.748 30.5099H132.334ZM135.332 28.06H136.415C137.114 28.06 137.619 27.9276 137.93 27.6627C138.241 27.3979 138.397 27.0558 138.397 26.6364C138.397 26.2171 138.241 25.875 137.93 25.6101C137.619 25.3452 137.114 25.2128 136.415 25.2128H135.332V28.06ZM142.328 30.5099V18.9225H145.326V30.5099H142.328Z" fill="#595653"/>
<path d="M147.656 30.5099V18.9225H152.403C153.491 18.9225 154.385 19.0825 155.085 19.4025C155.784 19.7115 156.301 20.164 156.634 20.7599C156.978 21.3448 157.15 22.0511 157.15 22.8788C157.15 23.6954 156.978 24.4017 156.634 24.9976C156.301 25.5935 155.784 26.0515 155.085 26.3716C154.385 26.6806 153.491 26.8351 152.403 26.8351H150.654V30.5099H147.656ZM150.654 24.3851H152.07C152.836 24.3851 153.375 24.2582 153.686 24.0044C153.997 23.7506 154.152 23.3754 154.152 22.8788C154.152 22.3822 153.997 22.007 153.686 21.7531C153.375 21.4993 152.836 21.3724 152.07 21.3724H150.654V24.3851Z" fill="#595653"/>
<path d="M158.815 30.5099V18.9225H167.309V21.2069H161.813V23.4747H166.809V25.6267H161.813V28.2256H167.309V30.5099H158.815Z" fill="#595653"/>
<path d="M168.471 30.5099L172.269 24.4679L168.638 18.9225H171.952L174.234 22.4318L176.549 18.9225H179.797L176.183 24.4348L179.964 30.5099H176.616L174.184 26.4543L171.752 30.5099H168.471Z" fill="#595653"/>
<path d="M185.706 30.5099V18.9225H188.704V23.5078H189.537L193.101 18.9225H196.366L191.868 24.3355L196.532 30.5099H193.034L189.537 25.5935H188.704V30.5099H185.706Z" fill="#595653"/>
<path d="M203.038 30.7251C202.283 30.7251 201.561 30.6148 200.872 30.3941C200.184 30.1733 199.579 29.8257 199.057 29.3512C198.535 28.8767 198.124 28.2642 197.824 27.5138C197.525 26.7523 197.375 25.8474 197.375 24.799V24.4679C197.375 23.4526 197.525 22.5808 197.824 21.8525C198.124 21.1241 198.535 20.5282 199.057 20.0647C199.579 19.6012 200.184 19.2591 200.872 19.0384C201.561 18.8177 202.283 18.7073 203.038 18.7073C203.815 18.7073 204.542 18.8177 205.22 19.0384C205.897 19.2591 206.497 19.6012 207.019 20.0647C207.54 20.5282 207.951 21.1241 208.251 21.8525C208.551 22.5808 208.701 23.4526 208.701 24.4679V24.799C208.701 25.8474 208.551 26.7523 208.251 27.5138C207.951 28.2642 207.54 28.8767 207.019 29.3512C206.497 29.8257 205.897 30.1733 205.22 30.3941C204.542 30.6148 203.815 30.7251 203.038 30.7251ZM203.021 28.2421C203.476 28.2421 203.898 28.1428 204.287 27.9441C204.676 27.7345 204.986 27.3868 205.22 26.9013C205.464 26.4047 205.586 25.7039 205.586 24.799V24.4679C205.586 23.6071 205.464 22.9395 205.22 22.4649C204.986 21.9904 204.676 21.6593 204.287 21.4717C203.898 21.2841 203.476 21.1903 203.021 21.1903C202.588 21.1903 202.177 21.2841 201.789 21.4717C201.4 21.6593 201.083 21.9904 200.839 22.4649C200.595 22.9395 200.473 23.6071 200.473 24.4679V24.799C200.473 25.7039 200.595 26.4047 200.839 26.9013C201.083 27.3868 201.4 27.7345 201.789 27.9441C202.177 28.1428 202.588 28.2421 203.021 28.2421Z" fill="#595653"/>
<path d="M210.608 30.5099V18.9225H213.607V23.3257H217.937V18.9225H220.935V30.5099H217.937V25.7756H213.607V30.5099H210.608Z" fill="#595653"/>
<path d="M223.263 30.5099V18.9225H231.758V21.2069H226.261V23.4747H231.258V25.6267H226.261V28.2256H231.758V30.5099H223.263Z" fill="#595653"/>
<path d="M233.673 30.5099V18.9225H236.671V25.875L241.252 18.9225H244V30.5099H241.002V23.5575L236.421 30.5099H233.673ZM238.837 18.2769C238.059 18.2769 237.421 18.1721 236.921 17.9624C236.433 17.7417 236.072 17.4216 235.839 17.0023C235.616 16.5829 235.505 16.0587 235.505 15.4297H237.937C237.937 15.8932 238.004 16.2077 238.137 16.3733C238.281 16.5278 238.515 16.605 238.837 16.605C239.159 16.605 239.386 16.5278 239.52 16.3733C239.664 16.2077 239.736 15.8932 239.736 15.4297H242.168C242.168 16.0587 242.051 16.5829 241.818 17.0023C241.596 17.4216 241.241 17.7417 240.752 17.9624C240.263 18.1721 239.625 18.2769 238.837 18.2769Z" fill="#595653"/>
</svg>
